<?xml version="1.0" encoding="utf-8"?>
<!-- Generator: Adobe Illustrator 23.0.0, SVG Export Plug-In . SVG Version: 6.00 Build 0)  -->
<svg version="1.1" id="Layer_1" xmlns="http://www.w3.org/2000/svg" xmlns:xlink="http://www.w3.org/1999/xlink" x="0px" y="0px"
	 viewBox="0 0 1229.9 360" style="enable-background:new 0 0 1229.9 360;" xml:space="preserve">
<style type="text/css">
	.st0{fill:#FFFFFF;}
</style>
<title>BW Logo White v1</title>
<g>
	<path class="st0" d="M202.8,200.2c0,0,4,23.9,1,27.6c-3,3.8-7.1,5.8-7.1,5.8v9.3c0,0,14.4,20.5,22.3,23.8l30.6-3.9l-27.8-12.7
		l3.8-41.9L202.8,200.2z"/>
	<polygon class="st0" points="226.3,194.1 226.3,202.3 233.2,206 228.4,246.8 234.9,247.4 237.3,239.6 245.1,240.5 244.7,252 
		254.6,253.5 275.6,193.4 	"/>
	<path class="st0" d="M281.9,184.6l-32.4-0.7l-0.6-18.6H240l-0.4,23.2l-41.3,5.6c0,0-16.7-17.8-2.9-65.5l43.8-14.7
		c0,0-28.4-42.5-76.2-39.9s-62.6,29.8-71,57.6c-12.1,40.3,2.2,131,2.2,131l-62.9-21.4c0,0-3.1-60.3,15.4-110.3
		c18.4-50,59.5-90,121.5-90.9c61.9-0.9,97.3,43.3,102.7,69.5l-17.9,0.3c0,0-4.4,0-4.2,4.9l13.1,16.5h16.4c0,0,14.9,18.9,3.3,53.3
		L281.9,184.6z"/>
	<path class="st0" d="M234.7,359.8c0,0,2.4-21-11.9-50.3c-14.3-29.2-60.4-108.8-52.7-148.2c0,0,11.3-8.5,14.3-12.5s5-8.8,1.5-15.8
		c-3.6-7,5.1-17.1,39.9-21c0,0-14.3-29.7-61.3-28.4c-41.5,1.2-57.8,21-67.3,64.9s6.5,123.2,6.5,123.2s44.4,16.1,73.6,35.7
		C206.5,326.9,234.7,359.8,234.7,359.8z"/>
	<path class="st0" d="M292.4,155.8c0,0,1.5-17.9-4-25.7h14.3l1.8,14.1L292.4,155.8z"/>
	<path class="st0" d="M280.2,111.4c0,0-3-13.6-11.9-26.3l15.4-8.4c0,0,9.8,15.5,13.2,34.4L280.2,111.4z"/>
	<path class="st0" d="M279.4,68.6l-15.3,10l-9.8-11.9l14-13.8c0,0,6.1,5.9,11.1,16.2V68.6z"/>
	<path class="st0" d="M263.8,45c0,0-15.4-20.3-43.2-32.5l-11.1,27.1c0,0,23,5.7,39.2,22.5L263.8,45z"/>
	<path class="st0" d="M212.2,8.9L203,37.4l-18.3-4.1L190,2.5c0,0,10.3,0.5,22,6.5h0.2V8.9z"/>
	<path class="st0" d="M179.9,1.3l-1.1,31.2c0,0-20.9-2.8-46.3,1.8l-6.9-31.4c0,0,13-2.9,29.1-2.9C171,0,179.9,1.3,179.9,1.3z"/>
	<polygon class="st0" points="114.2,4.8 123.9,36.2 109.9,42.2 95.5,11 	"/>
	<path class="st0" d="M86,16.8l16.7,29.3c0,0-16.5,8.7-35.2,29.5L40.7,50.1c0,0,12.5-12.8,21.3-19.2C73.9,22.3,86,16.8,86,16.8z"/>
	<polygon class="st0" points="34.6,58.5 61.9,83 54.5,94 25.7,71.6 	"/>
	<path class="st0" d="M20.3,81.6l28.9,21.1c0,0-8.7,15.2-14.8,37.4l-31-10.6c0,0,1.3-10.8,6.9-25.5C15.9,89.4,20.3,81.6,20.3,81.6z"
		/>
	<polygon class="st0" points="32.8,148.3 31.2,159.6 0,158 1,140.9 	"/>
	<path class="st0" d="M28.8,167.5c0,0-2.6,26.3-3.2,38.5H4l-3-37.4L28.8,167.5z"/>
	<polygon class="st0" points="24.9,214.1 24.9,241.5 11.9,241.5 5.8,214.6 	"/>
</g>
<g>
	<g>
		<path class="st0" d="M710.7,98h70.6c43.4,0,66.1,14.6,66.1,42.9c0,10.6-3.8,19.7-10.1,25.2c-6.1,5.3-11.3,7.8-24.5,11.1
			c16.4,4,23.2,7.1,30.8,13.9c8.1,7.3,12.4,17.4,12.4,28.5c0,12.1-5,23.5-14.1,31.5c-9.3,8.6-27.5,13.9-46.9,13.9h-84.2v-4.8
			c20.7-0.8,24-3.8,24.2-22.7v-112c-0.3-18.9-3-21.4-24.2-22.7L710.7,98L710.7,98z M784.6,172.6c24.2-0.3,37.1-10.8,37.1-30.8
			c0-22.4-16.4-35.3-44.4-34.5l-11.1,0.3c-4.3,0.3-5.3,1.8-5.5,7.3v58L784.6,172.6z M760.6,245.2c0,8.1,3.5,10.3,15.9,10.3
			c16.6,0,27-2,35.1-6.6c10.1-5.8,15.4-15.6,15.4-29.3c0-15.6-6.8-26-21.2-31.8c-9.1-3.8-20.7-5.3-45.1-5.3v62.7L760.6,245.2
			L760.6,245.2z"/>
		<path class="st0" d="M1039,264.9H902.8v-4.8c18.2-1,21.4-4.5,21.9-22.7v-112c-0.5-18.2-3.5-21.4-21.9-22.7V98h133.9l0.8,36.1h-6.3
			c-4-22.4-9.1-26-38.3-26.5h-34c-7.1,0-8.1,1-8.3,8.6v56h26.1c21.2-0.5,24.7-3.5,27.7-24h5.8v58.5h-5.8
			c-3.3-20.7-6.6-23.7-27.7-24.2h-26.1v62.3c0,9.8,0.3,10.1,26.5,10.8h6.8c36.1-0.3,47.4-6.6,59.5-33.3h7.1L1039,264.9z"/>
		<path class="st0" d="M1153.2,102.8c-19.7,1-22.9,4.3-23.5,22.7v119.3c0.3,9.1,2.3,9.8,21.7,10.3h16.9c32.5-1,43.4-7.6,55.2-34h6.3
			l-12.1,43.9H1082v-4.8c18.2-1,21.4-4.5,21.9-22.7v-112c-0.5-18.2-3.5-21.4-21.9-22.7V98h71.1L1153.2,102.8L1153.2,102.8z"/>
	</g>
	<g>
		<path class="st0" d="M458.6,177.1c9.5,2.4,16.5,4.8,20.9,7.1c14.7,8,22,19.8,22,35.5c0,12.6-4.7,23.1-14,31.5
			c-4.6,4.2-11.1,7.5-19.6,10s-17.6,3.7-27.3,3.7h-84.3v-4.8c7-0.2,11.5-0.7,13.5-1.4c3.9-1.1,6.5-2.7,7.9-4.8
			c1.8-2.9,2.7-8.4,2.8-16.5v-112c-0.2-10.6-2-16.8-5.4-18.7c-2.3-1.6-5.3-2.6-8.9-3.1c-2.8-0.3-6.1-0.6-10-0.9v-4.8H427
			c20.2,0,36.2,3.3,47.9,10c12.1,6.9,18.2,17.9,18.2,33c0,11-3.3,19.4-10,25.2C477.9,170.7,469.7,174.3,458.6,177.1z M406.3,172.7
			h24c6.2,0,12.1-0.9,17.5-2.8c5.4-1.8,9.6-4.3,12.6-7.4c4.7-5,7-11.9,7-20.6c0-10.8-3.3-19-9.8-24.7c-3.4-3-8.2-5.3-14.5-7.1
			c-6.3-1.8-12.9-2.6-20-2.6h-11.2c-2,0-3.4,0.6-4.2,1.7c-0.9,1.2-1.3,3-1.3,5.7v57.8H406.3z M406.3,182.6v62.7
			c0,3.7,0.8,6.2,2.5,7.6c2.1,1.8,6.3,2.7,12.8,2.7c12.5,0,21.7-1,27.6-3c15.6-5.1,23.4-16.1,23.4-33c0-15.4-7-26-21.1-31.8
			C443.2,184.5,428.1,182.7,406.3,182.6z"/>
	</g>
	<g>
		<path class="st0" d="M517.3,264.8V260c4.1-0.3,7.3-1,9.6-2c3.9-1.7,8.5-8.9,13.5-21.4l56-141.6h3.8l62.1,138.5
			c7.2,15.6,13.4,24,18.5,25.2c2.1,0.7,4.8,1.1,8.2,1.2v4.8h-67V260c3.6-0.2,6.1-0.4,7.4-0.5c7.7-0.4,11.6-3,11.6-7.8
			c0-2.1-0.4-4.1-1.2-6.2c-2-5.3-5-12.6-9.1-21.9l-38.2-85.2L555.4,231c-3.2,8.1-4.8,14.4-4.8,18.7c0,3.2,1.3,5.6,3.8,7.3
			c2.5,1.6,7.4,2.7,14.7,3.1v4.8h-51.8L517.3,264.8L517.3,264.8z"/>
	</g>
</g>
</svg>
