<svg width="686" height="185" viewBox="0 0 686 185" fill="none" xmlns="http://www.w3.org/2000/svg">
<path d="M300.333 138.752V136.157C302.108 136.077 303.86 135.718 305.523 135.093C307.686 134.158 310.152 130.266 312.92 123.414L343.441 46.2825H345.517L379.257 121.753C383.202 130.248 386.558 134.825 389.327 135.482C390.787 135.903 392.297 136.13 393.817 136.157V138.752H357.352V136.157L361.375 135.897C365.579 135.664 367.682 134.262 367.682 131.667C367.671 130.518 367.442 129.382 367.007 128.319C365.917 125.412 364.282 121.416 362.05 116.381L341.287 69.9514L321.043 120.3C319.599 123.525 318.721 126.975 318.448 130.499C318.408 131.286 318.579 132.069 318.944 132.768C319.31 133.466 319.855 134.054 320.524 134.47C323.02 135.619 325.745 136.187 328.492 136.131V138.726L300.333 138.752Z" fill="#1D252C"/>
<path d="M205.836 47.8917H244.014C267.372 47.8917 279.726 55.8072 279.726 71.0674C279.838 73.5954 279.409 76.1182 278.47 78.4677C277.53 80.8172 276.1 82.9393 274.275 84.6926C271.005 87.5734 268.15 88.9229 261.065 90.6877C269.915 92.8677 273.601 94.5028 277.701 98.1881C279.84 100.14 281.54 102.523 282.69 105.181C283.839 107.838 284.413 110.709 284.371 113.604C284.383 116.821 283.708 120.004 282.392 122.939C281.076 125.875 279.15 128.497 276.741 130.629C271.55 135.275 261.87 138.129 251.384 138.129H205.836V135.534C217.022 135.145 218.813 133.51 218.813 123.284V62.7626C218.657 52.5372 217.178 51.1617 205.836 50.4869V47.8917ZM245.779 88.2482C258.755 88.2482 265.841 82.3828 265.841 71.6125C265.841 59.4666 256.964 52.5372 241.834 52.9265L235.838 53.0822C233.529 53.212 232.984 54.0165 232.828 57.027V88.3779L245.779 88.2482ZM232.802 127.515C232.802 131.875 234.722 133.094 241.392 133.094C250.398 133.094 255.978 132.004 260.338 129.539C265.815 126.425 268.669 121.104 268.669 113.734C268.934 110.007 267.953 106.298 265.882 103.188C263.81 100.079 260.765 97.745 257.224 96.553C252.319 94.5028 246.038 93.6982 232.802 93.6982V127.515Z" fill="#1D252C"/>
<path d="M409.856 47.8917H448.033C471.391 47.8917 483.745 55.8072 483.745 71.0674C483.85 73.5946 483.419 76.1155 482.48 78.464C481.54 80.8124 480.114 82.9353 478.295 84.6926C475.025 87.5734 472.17 88.9229 465.059 90.6877C473.935 92.8677 477.62 94.5028 481.695 98.1881C483.837 100.139 485.541 102.521 486.695 105.178C487.849 107.836 488.427 110.707 488.391 113.604C488.404 116.824 487.727 120.009 486.407 122.946C485.086 125.882 483.152 128.502 480.735 130.629C475.7 135.275 465.889 138.129 455.378 138.129H409.856V135.534C421.042 135.145 422.833 133.51 422.833 123.284V62.7626C422.833 52.5372 421.197 51.1617 409.856 50.4869V47.8917ZM449.798 88.2482C462.775 88.2482 469.834 82.3828 469.834 71.6125C469.834 59.4666 460.984 52.5372 445.853 52.9265L439.858 53.0822C437.522 53.212 436.977 54.0165 436.847 57.027V88.3779L449.798 88.2482ZM436.821 127.515C436.821 131.875 438.742 133.094 445.412 133.094C454.418 133.094 459.998 132.004 464.358 129.539C467.087 127.949 469.315 125.624 470.788 122.83C472.261 120.036 472.919 116.884 472.689 113.734C472.956 110.003 471.974 106.289 469.897 103.178C467.819 100.067 464.766 97.7365 461.218 96.553C456.312 94.5028 450.058 93.6982 436.821 93.6982V127.515Z" fill="#1D252C"/>
<path d="M580.992 138.129H507.363V135.534C517.173 134.989 518.964 133.094 519.223 123.284V62.7626C518.964 52.9265 517.329 51.1617 507.363 50.4869V47.8917H579.747L580.162 67.3822H576.762C574.582 55.2622 571.857 53.3417 555.999 53.0822H537.598C533.783 53.0822 533.238 53.6272 533.109 57.7018V87.9627H554.105C565.55 87.7031 567.471 86.0681 569.106 74.9863H572.22V106.649H569.106C567.315 95.463 565.55 93.828 554.105 93.6723H533.109V127.177C533.109 132.368 533.109 132.627 547.409 133.043H551.094C570.585 132.913 576.736 129.487 583.276 115.057H587.092L580.992 138.129Z" fill="#1D252C"/>
<path d="M644.552 50.4869C633.912 51.0319 632.147 52.7967 631.861 62.7626V127.177C632.017 132.082 633.107 132.368 643.592 132.757H652.728C670.298 132.212 676.086 128.683 682.574 114.357H686L679.46 138.129H606.116V135.534C615.926 134.989 617.691 133.094 617.976 123.284V62.7626C617.691 52.9265 616.056 51.1617 606.116 50.4869V47.8917H644.552V50.4869Z" fill="#1D252C"/>
<path d="M106.279 102.938C106.279 102.938 108.355 115.213 106.772 117.134C105.736 118.362 104.477 119.384 103.061 120.144V124.945C103.061 124.945 110.639 135.508 114.766 137.195L130.805 135.197L116.271 128.683L118.27 107.116L106.279 102.938Z" fill="#00A6CE"/>
<path d="M118.555 99.7971V104.027L122.214 105.922L119.671 126.892L123.097 127.229L124.317 123.206L128.417 123.648L128.21 129.565L133.426 130.343L144.379 99.4597L118.555 99.7971Z" fill="#00A6CE"/>
<path d="M147.727 94.892L130.753 94.5546L130.416 84.978H125.77L125.537 96.9163L103.917 99.797C103.917 99.797 95.1711 90.6357 102.386 66.0585L125.303 58.4803C125.303 58.4803 110.458 36.6281 85.3866 37.9776C60.3157 39.3272 52.5816 53.2898 48.1695 67.5897C41.8109 88.3519 49.3374 135.067 49.3374 135.067L16.3766 123.985C16.3766 123.985 14.7415 92.9974 24.4221 67.3042C34.1028 41.611 55.5662 21.0565 88.0599 20.5893C120.553 20.1222 139.058 42.8308 141.887 56.3262L132.518 56.4819C132.193 56.476 131.871 56.5427 131.575 56.6772C131.28 56.8117 131.018 57.0107 130.809 57.2594C130.6 57.5082 130.449 57.8005 130.368 58.115C130.286 58.4295 130.276 58.7583 130.338 59.0772L137.216 67.4859H145.78C145.78 67.4859 153.566 77.1922 147.493 94.892H147.727Z" fill="#00A6CE"/>
<path d="M122.993 185C122.993 185 124.239 174.204 116.764 159.047C109.29 143.891 85.1271 103.197 89.1499 83.0577C91.8234 81.1325 94.3322 78.9883 96.6504 76.6474C97.6362 75.5518 98.2441 74.1684 98.3842 72.7013C98.5244 71.2341 98.1896 69.7607 97.429 68.4982C95.5084 64.8908 100.102 59.7003 118.347 57.5721C118.347 57.5721 110.847 42.286 86.1912 42.9867C64.4941 43.6355 55.9295 53.809 50.9465 76.3879C45.9634 98.9667 54.3723 139.713 54.3723 139.713C54.3723 139.713 77.6266 147.94 92.9131 158.061C103.935 165.863 114.027 174.902 122.993 185Z" fill="#00A6CE"/>
<path d="M153.229 80.125C153.229 80.125 154.033 70.9377 151.153 66.8891H158.627L159.587 74.1299L153.229 80.125Z" fill="#00A6CE"/>
<path d="M146.844 57.2866C145.607 52.4336 143.487 47.8499 140.589 43.7652L148.635 39.4311C151.95 44.8771 154.295 50.8571 155.565 57.1049L146.844 57.2866Z" fill="#00A6CE"/>
<path d="M146.429 35.2526L138.383 40.4432L133.193 34.3183L140.538 27.2073C142.906 29.6729 144.876 32.4923 146.377 35.5641L146.429 35.2526Z" fill="#00A6CE"/>
<path d="M138.254 23.1586C132.098 15.912 124.354 10.1836 115.622 6.41913L109.809 20.3557C117.504 22.4567 124.558 26.4338 130.338 31.9307L138.254 23.1586Z" fill="#00A6CE"/>
<path d="M111.08 4.60247L106.357 19.2398L96.7801 17.1636L99.5571 1.28052C103.574 1.64682 107.485 2.77418 111.08 4.60247Z" fill="#00A6CE"/>
<path d="M94.2887 0.709596L93.7437 16.7484C85.6779 15.9222 77.5362 16.2279 69.5551 17.6567L65.8697 1.48818C70.8971 0.505027 76.0077 0.00962666 81.1303 0.00887227C85.5271 -0.0499918 89.923 0.184101 94.2887 0.709596Z" fill="#00A6CE"/>
<path d="M59.8226 2.44843L64.9355 18.617L57.6166 21.6794L50.0382 5.66656L59.8226 2.44843Z" fill="#00A6CE"/>
<path d="M45.055 8.651L53.8013 23.7036C46.8773 27.7652 40.6476 32.9082 35.3485 38.9378L21.3596 25.7798C24.8602 22.2442 28.5881 18.9412 32.5195 15.8918C36.4777 13.1155 40.6724 10.6925 45.055 8.651Z" fill="#00A6CE"/>
<path d="M18.1414 30.114L32.4417 42.6491L28.5747 48.3587L13.4438 36.8098L18.1414 30.114Z" fill="#00A6CE"/>
<path d="M10.6669 41.9485L25.7977 52.8227C22.4674 58.9104 19.8546 65.3639 18.0117 72.0537L1.81677 66.6296C2.51512 62.1404 3.71654 57.744 5.39834 53.5235C6.88861 49.5496 8.64889 45.6822 10.6669 41.9485Z" fill="#00A6CE"/>
<path d="M17.2071 76.2321L16.3506 82.0715L0 81.241L0.545021 72.469L17.2071 76.2321Z" fill="#00A6CE"/>
<path d="M15.053 86.12C15.053 86.12 13.6775 99.6154 13.392 105.896H2.07632L0.545074 86.691L15.053 86.12Z" fill="#00A6CE"/>
<path d="M13.0286 110.074V124.167H6.22878L3.06247 110.36L13.0286 110.074Z" fill="#00A6CE"/>
</svg>